<?xml version="1.0" standalone="no"?>
<!DOCTYPE svg PUBLIC "-//W3C//DTD SVG 20010904//EN"
 "http://www.w3.org/TR/2001/REC-SVG-20010904/DTD/svg10.dtd">
<svg version="1.0" xmlns="http://www.w3.org/2000/svg"
 width="300.000000pt" height="140.000000pt" viewBox="0 0 300.000000 140.000000"
 preserveAspectRatio="xMidYMid meet">
<metadata>
Created by potrace 1.10, written by Peter Selinger 2001-2011
</metadata>
<g transform="translate(0.000000,140.000000) scale(0.100000,-0.100000)"
fill="#000000" stroke="none">
<path d="M375 1330 c-51 -11 -153 -49 -160 -59 -10 -17 68 -167 107 -207 l39
-41 -28 -6 c-16 -3 -51 -21 -78 -39 -99 -67 -138 -198 -88 -293 29 -56 181
-201 234 -224 89 -39 216 -36 307 8 34 15 35 15 50 -7 14 -21 21 -22 129 -22
l115 0 -4 273 c-5 339 -4 333 -135 468 -126 130 -172 152 -333 155 -63 2 -133
-1 -155 -6z m309 -40 c78 -30 139 -91 160 -160 12 -40 16 -108 16 -303 l1
-251 -90 -2 -91 -2 0 39 c0 22 -3 39 -8 39 -4 0 -24 -11 -45 -26 -59 -40 -112
-54 -202 -54 -71 0 -90 4 -136 28 -171 89 -153 306 31 391 49 22 68 25 170 25
65 0 127 -5 143 -12 23 -10 29 -9 34 4 9 25 -14 88 -44 116 -65 59 -148 63
-308 14 -19 -6 -31 13 -73 115 -2 5 14 15 35 24 114 49 299 55 407 15z m-109
-161 c28 -12 25 -13 -55 -19 -47 -4 -104 -15 -128 -24 -34 -15 -45 -16 -57 -6
-22 18 -18 29 13 41 77 30 168 33 227 8z m332 -79 c8 -36 13 -132 13 -284 0
-197 -2 -227 -14 -217 -12 10 -15 64 -19 274 -2 144 -8 276 -11 292 -6 27 -6
28 5 10 7 -11 19 -45 26 -75z m-290 28 c27 -11 26 -12 -32 -19 -33 -4 -91 -12
-130 -17 -38 -5 -73 -8 -77 -5 -18 10 -4 21 45 36 63 19 156 21 194 5z m338
-61 c10 -38 15 -117 17 -290 2 -130 0 -237 -3 -237 -24 0 -28 44 -31 290 -2
146 -7 274 -12 284 -7 14 -6 17 2 12 7 -4 18 -30 27 -59z m-295 -436 c0 -25
-6 -31 -42 -46 -85 -35 -232 -30 -283 10 -19 14 -18 15 10 8 17 -5 65 -8 107
-7 65 1 86 6 135 31 74 38 73 38 73 4z m230 -46 c11 -13 1 -15 -78 -15 -67 0
-93 4 -102 15 -11 13 -1 15 78 15 67 0 93 -4 102 -15z m-180 -36 c0 -16 -97
-39 -164 -39 -78 0 -131 12 -161 35 -18 13 -17 14 13 4 50 -17 189 -7 237 17
35 18 42 18 58 5 9 -8 17 -17 17 -22z m228 -11 c21 -21 14 -23 -65 -22 -79 1
-113 9 -113 25 0 14 164 11 178 -3z"/>
<path d="M446 890 c-84 -25 -113 -111 -56 -165 26 -25 40 -30 94 -33 53 -4 71
0 105 19 71 39 112 168 59 183 -33 8 -168 6 -202 -4z m182 -16 c41 -12 18 -25
-50 -29 -37 -2 -77 -9 -90 -16 -37 -19 -68 -51 -68 -71 0 -24 -17 -23 -30 1
-23 44 2 83 65 106 42 15 133 19 173 9z m12 -63 c0 -15 -10 -20 -52 -25 -40
-6 -59 -15 -86 -42 -38 -38 -62 -38 -62 0 0 38 51 68 129 76 36 4 67 8 69 9 1
0 2 -7 2 -18z m-20 -50 c0 -12 -81 -51 -105 -51 -18 0 -18 1 0 20 25 28 105
51 105 31z"/>
<path d="M1720 640 l0 -200 40 0 40 0 0 200 0 200 -40 0 -40 0 0 -200z"/>
<path d="M2127 643 l3 -198 35 -3 c26 -2 35 1 35 12 0 20 9 20 34 1 26 -20 80
-19 122 1 64 31 91 135 53 206 -28 52 -138 77 -188 42 l-23 -16 4 76 3 76 -40
0 -40 0 2 -197z m60 13 c-4 -9 -11 -16 -17 -16 -11 0 -14 33 -3 44 11 10 26
-11 20 -28z m142 -22 c12 -15 21 -40 21 -56 0 -36 -40 -78 -75 -78 -35 0 -75
42 -75 78 0 44 35 82 75 82 24 0 39 -7 54 -26z"/>
<path d="M1153 710 c-20 -8 -22 -12 -11 -35 10 -22 16 -25 42 -18 50 11 79 6
98 -17 10 -12 18 -25 18 -29 0 -4 -28 -5 -63 -3 -57 4 -66 1 -95 -23 -32 -27
-41 -61 -26 -100 16 -39 111 -59 150 -30 25 19 34 19 34 0 0 -10 11 -15 35
-15 l35 0 0 100 c0 110 -11 145 -51 166 -31 15 -131 18 -166 4z m125 -146 c44
-12 4 -74 -49 -74 -56 0 -63 56 -8 71 33 10 31 9 57 3z"/>
<path d="M1406 613 c4 -66 12 -117 21 -131 26 -41 104 -55 153 -27 33 19 41
18 33 -1 -5 -12 1 -15 31 -12 l37 3 2 138 2 137 -37 0 -38 0 0 -85 c0 -79 -2
-88 -26 -111 -19 -20 -31 -24 -52 -19 -44 10 -52 31 -52 127 l0 88 -40 0 -41
0 7 -107z"/>
<path d="M1873 710 c-20 -8 -22 -12 -11 -35 10 -22 16 -25 42 -19 49 11 80 6
99 -17 9 -12 17 -24 17 -28 0 -4 -28 -5 -63 -3 -57 4 -66 1 -95 -23 -32 -27
-41 -61 -26 -100 16 -39 111 -59 150 -30 25 19 34 19 34 0 0 -10 11 -15 35
-15 l35 0 0 94 c0 110 -12 151 -51 171 -31 16 -131 19 -166 5z m125 -146 c44
-12 4 -74 -49 -74 -52 0 -64 51 -17 70 28 11 37 11 66 4z"/>
<path d="M1132 258 c2 -102 6 -143 16 -146 9 -3 12 15 12 67 0 58 4 75 20 91
50 50 90 9 90 -93 0 -50 3 -68 13 -65 17 6 21 136 5 167 -18 35 -60 46 -98 28
l-30 -15 0 54 c0 42 -3 54 -15 54 -13 0 -15 -20 -13 -142z"/>
<path d="M1680 254 c0 -112 3 -145 13 -142 6 3 13 18 15 35 2 17 11 38 22 48
17 16 20 14 50 -29 19 -29 38 -46 51 -46 17 0 14 7 -22 56 l-41 56 29 31 c15
18 31 33 36 35 4 2 7 8 7 13 0 21 -28 6 -77 -43 l-53 -52 0 92 c0 75 -3 92
-15 92 -13 0 -15 -23 -15 -146z"/>
<path d="M2170 346 l0 -54 -29 14 c-55 27 -107 -4 -118 -70 -7 -47 13 -93 48
-112 35 -18 33 -18 68 1 26 13 30 13 35 -1 3 -8 10 -12 16 -9 6 4 10 63 10
146 0 117 -2 139 -15 139 -11 0 -15 -13 -15 -54z m-19 -77 c29 -29 23 -85 -13
-112 l-28 -21 -27 21 c-53 39 -34 133 27 133 11 0 29 -9 41 -21z"/>
<path d="M1358 309 c-16 -6 -28 -18 -28 -26 0 -11 5 -13 18 -8 43 19 69 17 86
-6 24 -35 20 -39 -29 -39 -47 0 -85 -25 -85 -55 0 -18 44 -65 60 -65 6 0 24 7
40 15 25 13 29 13 34 -1 3 -8 9 -13 13 -11 11 7 0 174 -12 186 -16 16 -67 21
-97 10z m89 -116 c6 -18 -36 -55 -59 -51 -30 4 -45 32 -28 53 15 18 81 17 87
-2z"/>
<path d="M1554 310 c-47 -19 -67 -84 -44 -144 17 -47 85 -66 125 -35 34 27 19
49 -18 25 -18 -12 -31 -14 -49 -7 -29 11 -38 29 -38 76 0 54 54 83 91 49 17
-16 39 -12 39 6 0 11 -54 40 -72 39 -7 0 -23 -4 -34 -9z"/>
<path d="M1878 309 c-16 -6 -28 -18 -28 -26 0 -11 5 -13 18 -8 40 17 63 17 82
0 33 -30 25 -45 -23 -45 -24 0 -51 -6 -61 -13 -26 -19 -24 -67 4 -89 27 -22
37 -22 72 -4 23 12 27 12 33 -1 12 -33 19 1 16 80 -1 46 -8 87 -14 94 -18 18
-68 24 -99 12z m92 -117 c0 -46 -70 -68 -94 -29 -15 24 15 47 61 47 25 0 33
-4 33 -18z"/>
<path d="M2275 308 c-61 -35 -67 -131 -11 -177 29 -25 116 -13 116 16 0 11 -6
13 -20 9 -11 -3 -29 -9 -39 -12 -20 -6 -71 34 -71 56 0 6 29 10 75 10 41 0 75
4 75 9 0 29 -26 74 -51 86 -33 18 -47 18 -74 3z m75 -38 c32 -32 24 -40 -40
-40 -33 0 -60 4 -60 10 0 17 39 50 60 50 11 0 29 -9 40 -20z"/>
<path d="M2422 218 c3 -119 20 -135 28 -27 4 55 9 74 24 85 24 17 37 18 59 2
12 -10 17 -32 19 -87 2 -49 7 -76 16 -79 9 -3 12 15 12 67 0 58 4 75 20 91 23
23 39 25 63 8 12 -10 17 -32 19 -87 2 -49 7 -76 16 -79 9 -3 12 17 12 78 0 73
-3 83 -25 105 -29 30 -54 32 -86 6 -24 -19 -25 -19 -48 0 -28 23 -38 23 -73 5
-23 -12 -27 -12 -32 0 -3 8 -10 14 -16 14 -7 0 -10 -35 -8 -102z"/>
<path d="M2720 315 c0 -3 16 -47 35 -96 19 -50 35 -99 35 -109 0 -24 -22 -41
-50 -38 -32 4 -37 -20 -6 -28 46 -11 68 15 115 137 24 63 46 120 48 127 3 6
-2 12 -10 12 -10 0 -25 -27 -44 -80 -15 -44 -30 -80 -33 -80 -3 0 -16 30 -29
68 -13 37 -28 73 -34 80 -10 12 -27 17 -27 7z"/>
</g>
</svg>
